<svg fill="none" height="88" viewBox="0 0 128 88" width="128" xmlns="http://www.w3.org/2000/svg"><g fill="#ff00bf"><path d="m18.7317 51.5125v-49.95122h-18.7317v46.82922c0 12.8687 8.49639 18.7302 16.3902 18.7302 2.3524 0 4.7095-.5385 6.8231-1.5251.3122-.1452.8117-.4573.8117-.4573s-.4746-.4996-.6681-.7197c-2.9971-3.4091-4.6252-7.8454-4.6252-12.9061z"/><path d="m128 39.0248v-18.7317h-6.684c-2.793-14.72316-18.267-24.39185-33.817-18.58034-8.6603 3.23747-15.6941 13.58984-15.6941 22.83554v42.5553s.7727.0016.7805.0016h.0328c4.8234-.2076 9.3315-2.2478 12.6907-5.746 3.3717-3.5091 5.2277-8.1155 5.2277-12.9686h7.8049v-18.7317h-7.8049v-5.1481c0-2.0012 1.0568-3.8728 2.8067-4.8453 4.7968-2.663 9.6807.7634 9.6807 5.3105v17.1707c0 6.7949 2.564 13.0997 7.22 17.7561 4.453 4.4535 10.474 7.0135 16.952 7.207h.804v-18.7176s0-.0016-.002-.0016c-3.501-.0093-6.242-2.83-6.242-6.2439v-3.1219z"/><path d="m48.3902 20.293v24.9756c0 1.7249-1.3971 3.1219-3.122 3.1219s-3.1219-1.397-3.1219-3.1219v-24.9756h-18.7317v31.2195c0 8.6072 7.0025 15.6097 15.6097 15.6097 3.7198 0 7.3241-1.3315 10.1463-3.7463-.2919 2.304-1.5641 4.2224-3.6807 5.5477-1.984 1.2425-4.5674 1.8982-7.4724 1.8997-2.9909 0-6.0348-.704-8.8008-2.0355 0 0-.4948-.2357-1.1192-.5916v16.6384c4.1693 1.689 8.7352 2.5819 13.1606 2.5819 6.9978 0 13.3838-2.1885 17.9793-6.1612 5.159-4.4597 7.8845-10.9658 7.8845-18.816v-42.1463z"/></g></svg>