<svg fill="none" height="42" viewBox="0 0 256 42" width="256" xmlns="http://www.w3.org/2000/svg"><g fill="#004a43"><path d="m24.4222 23.7908c2.1979 0 3.4237-1.4288 3.4237-4.5401v-18.828093h5.516v39.541693h-5.7229s-10.267-14.3895-14.2021-19.644c-1.6864-2.2954-2.6038-3.7242-4.49717-3.7242-2.19784 0-3.42365 1.4288-3.42365 4.5401v18.8281h-5.51608v-39.541693h5.723s10.267 14.389393 14.202 19.643993c1.6865 2.2954 2.6039 3.7242 4.4972 3.7242z"/><path d="m66.0562 25.2507c0 8.3776-4.9539 15.3264-13.7414 15.3264-8.8889 0-13.8429-6.9488-13.8429-15.3264 0-8.2253 4.954-15.2756 13.8429-15.2756 8.7836 0 13.7414 7.0503 13.7414 15.2756zm-5.4692 0c0-4.6494-3.2714-7.3548-8.2761-7.3548-5.1101 0-8.3775 2.7093-8.3775 7.3548 0 4.8524 3.2713 7.4094 8.3775 7.4094 5.0086 0 8.2761-2.557 8.2761-7.4094z"/><path d="m93.383 30.3765v-12.1253h-4.7002c-5.6215 0-9.0412.5622-10.9853 3.8843-.9213 1.585-1.1243 3.5252-1.1243 6.4374v11.3913h-5.5161v-29.3761h5.5161v7.4601c1.5342-5.11 4.8524-7.4601 10.7784-7.4601h6.0275v-7.51095h5.5161v7.51095h11.1258v7.6631h-11.1258v9.8884"/><path d="m117.044 39.9643v-39.541693h5.516v17.727193c1.226-4.7002 4.751-8.0731 10.267-8.0731 6.387 0 10.728 4.9539 10.728 12.0042v17.8795h-5.516v-14.2021c0-1.8387-.203-3.3221-1.226-4.7509-1.327-1.8387-3.322-2.76-6.18-2.76-3.166 0-6.18 1.1243-7.562 4.9032-.511 1.4288-.511 3.7281-.511 6.1797v10.6262h-5.516z"/><path d="m181.683 30.3765v-12.1253h-4.7v-7.6631h4.7v-7.51095h5.516v7.51095h11.126v7.6631h-11.126v9.8884"/><path d="m224.738 39.9642v-5.5161c-1.686 3.7281-4.7 6.129-9.092 6.129-7.916 0-12.16-6.6912-12.16-15.2756 0-8.4284 4.24-15.3264 12.16-15.3264 4.392 0 7.41 2.4516 9.092 6.1797v-5.5668h5.517v29.3762zm0-14.7135c0-4.6494-3.166-7.3548-7.866-7.3548-4.801 0-7.917 2.7093-7.917 7.3548 0 4.8524 3.116 7.4094 7.917 7.4094 4.7 0 7.866-2.557 7.866-7.4094z"/><path d="m237.355 39.964v-29.3761h5.517v7.4602c1.534-5.1101 4.852-7.4602 10.778-7.4602h2.35v7.6632h-1.023c-5.617 0-9.041.5621-10.985 3.8843-.921 1.5849-1.124 3.5251-1.124 6.4373v11.3913z"/><path d="m187.199 28.1398c0 2.4867.929 4.5362 4.486 4.5362 3.189 0 4.587-1.6084 4.587-4.5636h3.829c.531 8.0731-2.276 12.4649-8.904 12.4649-6.598 0-9.518-4.9383-9.518-10.2007"/><path d="m98.903 28.1398c0 2.4867.9291 4.5362 4.486 4.5362 3.189 0 4.586-1.6084 4.586-4.5636h3.83c.531 8.0731-2.276 12.4649-8.904 12.4649-6.5979 0-9.5179-4.9383-9.5179-10.2007"/><path d="m174.738 31.4851c0 3.9585-2.873 9.092-12.363 9.092-10.322 0-14.171-5.926-13.917-12.4649h3.83c0 1.6357.991 2.8107 2.166 3.5251 2.12 1.2454 5.485 1.4288 8.296 1.4288 3.47 0 6.484-.9056 6.484-2.7756 0-1.0306-.621-1.8738-2.58-2.2291-1.293-.2342-3.088-.5231-5.7-.8432-5.856-.7222-11.825-1.7645-11.825-8.0457 0-5.5044 4.716-9.1974 11.489-9.1974 9.104 0 13.34 5.8791 12.75 11.9886h-3.728c0-1.2883-1.031-2.6663-2.307-3.33-1.48-.7651-3.365-1.2492-6.379-1.2492-3.966 0-6.609.8472-6.609 2.7483 0 1.4835 1.202 2.2447 7.37 2.9474 3.959.4411 6.695.8042 8.569 1.6396 3.225 1.3117 4.454 4.056 4.454 6.7653z"/></g></svg>