<svg fill="none" height="35" viewBox="0 0 179 35" width="179" xmlns="http://www.w3.org/2000/svg"><path d="m18.36 14.2165v-6.6h-5.84v-7.199998h-7.8v7.199998h-4.64v6.6h4.64v6.4c0 5 2.48 8 9 8h4.64v-6.96h-3.16c-1.64 0-2.68-.52-2.68-2.48v-4.96zm10.1459 5.96h15.12c.68-8.2-3.8-13.16-11.36-13.16-7.44 0-11.68 4.72-11.68 11 0 6.24 4.04 11 11.6 11 7.08 0 10.76-4.2 11-7.52h-7.4c-.32 1.04-1.52 1.6-3.24 1.6-2.4 0-3.6-1.04-4.04-2.92zm-.04-4.6c.48-2 1.64-2.88 3.8-2.88 1.96 0 3.08.76 3.64 2.88zm18.2372 12.84h7.8v-28.3999976h-7.8zm18.7169-8.24h15.12c.68-8.2-3.8-13.16-11.36-13.16-7.44 0-11.68 4.72-11.68 11 0 6.24 4.04 11 11.6 11 7.08 0 10.76-4.2 11-7.52h-7.4c-.32 1.04-1.52 1.6-3.24 1.6-2.4 0-3.6-1.04-4.04-2.92zm-.04-4.6c.48-2 1.64-2.88 3.8-2.88 1.96 0 3.08.76 3.64 2.88zm32.1172-8.48c-2.64 0-5.08.88-7.36 4.36v-.04l1.28-2.12-.12-1.68h-7.68v26.56h7.8v-7.72c1.64 2 3.84 2.56 6.08 2.56 6.1598 0 10.0398-4.96 10.0398-11 0-6-3.88-10.92-10.0398-10.92zm-1.92 15.12c-2.6 0-4.24-1.76-4.24-4.2s1.64-4.2 4.24-4.2c2.56 0 4.2 1.76 4.2 4.2s-1.64 4.2-4.2 4.2zm26.1428 6.8c7.44 0 11.76-4.8 11.76-11s-4.32-11-11.76-11c-7.32 0-11.72 4.8-11.72 11s4.36 11 11.72 11zm0-6.92c-2.56 0-4.04-1.72-4.04-4.08 0-2.32 1.48-4.08 4.04-4.08 2.6 0 4.08 1.76 4.08 4.08s-1.48 4.08-4.08 4.08zm28.749-15.08c-3.96 0-5.68 2.2-7 4.88l.8-1.8-.28-2.48h-7.52v20.8h7.8v-10.8c0-1.84.6-3.8 3.28-3.8 2.72 0 3.08 1.96 3.08 3.76v.52h7.28v-1.84c0-5.48-2.28-9.24-7.44-9.24zm28.204 7.2v-6.6h-5.84v-7.199998h-7.8v7.199998h-4.64v6.6h4.64v6.4c0 5 2.48 8 9 8h4.64v-6.96h-3.16c-1.64 0-2.68-.52-2.68-2.48v-4.96z" fill="#ff6e5f"/></svg>